<svg aria-hidden="true" style="position: absolute; width: 0; height: 0; overflow: hidden;" version="1.1" xmlns="http://www.w3.org/2000/svg" xmlns:xlink="http://www.w3.org/1999/xlink">
<defs>
<symbol id="icon-trending-up" viewBox="0 0 24 24">
<path d="M17 7h3.586l-7.086 7.086-4.293-4.293c-0.391-0.391-1.024-0.391-1.414 0l-7.5 7.5c-0.391 0.391-0.391 1.024 0 1.414s1.024 0.391 1.414 0l6.793-6.793 4.293 4.293c0.391 0.391 1.024 0.391 1.414 0l7.793-7.793v3.586c0 0.552 0.448 1 1 1s1-0.448 1-1v-6c0-0.136-0.027-0.265-0.076-0.383s-0.121-0.228-0.216-0.323c-0.001-0.001-0.001-0.001-0.002-0.002-0.092-0.092-0.202-0.166-0.323-0.216-0.118-0.049-0.247-0.076-0.383-0.076h-6c-0.552 0-1 0.448-1 1s0.448 1 1 1z"></path>
</symbol>
<symbol id="icon-automobile" viewBox="0 0 32 28">
<path d="M7.5 17c0-1.375-1.125-2.5-2.5-2.5s-2.5 1.125-2.5 2.5 1.125 2.5 2.5 2.5 2.5-1.125 2.5-2.5zM8.062 12h15.875l-1.391-5.578c-0.047-0.172-0.359-0.422-0.547-0.422h-12c-0.187 0-0.5 0.25-0.547 0.422zM29.5 17c0-1.375-1.125-2.5-2.5-2.5s-2.5 1.125-2.5 2.5 1.125 2.5 2.5 2.5 2.5-1.125 2.5-2.5zM32 15.5v6c0 0.281-0.219 0.5-0.5 0.5h-1.5v2c0 1.656-1.344 3-3 3s-3-1.344-3-3v-2h-16v2c0 1.656-1.344 3-3 3s-3-1.344-3-3v-2h-1.5c-0.281 0-0.5-0.219-0.5-0.5v-6c0-1.937 1.563-3.5 3.5-3.5h0.438l1.641-6.547c0.484-1.969 2.391-3.453 4.422-3.453h12c2.031 0 3.938 1.484 4.422 3.453l1.641 6.547h0.438c1.937 0 3.5 1.563 3.5 3.5z"></path>
</symbol>
<symbol id="icon-key" viewBox="0 0 32 32">
<path d="M22 0c-5.523 0-10 4.477-10 10 0 0.626 0.058 1.238 0.168 1.832l-12.168 12.168v6c0 1.105 0.895 2 2 2h2v-2h4v-4h4v-4h4l2.595-2.595c1.063 0.385 2.209 0.595 3.405 0.595 5.523 0 10-4.477 10-10s-4.477-10-10-10zM24.996 10.004c-1.657 0-3-1.343-3-3s1.343-3 3-3 3 1.343 3 3-1.343 3-3 3z"></path>
</symbol>
<symbol id="icon-plus" viewBox="0 0 32 32">
<path d="M31 12h-11v-11c0-0.552-0.448-1-1-1h-6c-0.552 0-1 0.448-1 1v11h-11c-0.552 0-1 0.448-1 1v6c0 0.552 0.448 1 1 1h11v11c0 0.552 0.448 1 1 1h6c0.552 0 1-0.448 1-1v-11h11c0.552 0 1-0.448 1-1v-6c0-0.552-0.448-1-1-1z"></path>
</symbol>
<symbol id="icon-user" viewBox="0 0 32 32">
<path d="M18 22.082v-1.649c2.203-1.241 4-4.337 4-7.432 0-4.971 0-9-6-9s-6 4.029-6 9c0 3.096 1.797 6.191 4 7.432v1.649c-6.784 0.555-12 3.888-12 7.918h28c0-4.030-5.216-7.364-12-7.918z"></path>
</symbol>
<symbol id="icon-meter" viewBox="0 0 32 32">
<path d="M16 0c-8.837 0-16 7.163-16 16s7.163 16 16 16 16-7.163 16-16-7.163-16-16-16zM9.464 26.067c0.347-0.957 0.536-1.99 0.536-3.067 0-3.886-2.463-7.197-5.913-8.456 0.319-2.654 1.508-5.109 3.427-7.029 2.267-2.266 5.28-3.515 8.485-3.515s6.219 1.248 8.485 3.515c1.92 1.92 3.108 4.375 3.428 7.029-3.45 1.26-5.913 4.57-5.913 8.456 0 1.077 0.189 2.11 0.536 3.067-1.928 1.258-4.18 1.933-6.536 1.933s-4.608-0.675-6.536-1.933zM17.242 20.031c0.434 0.109 0.758 0.503 0.758 0.969v2c0 0.55-0.45 1-1 1h-2c-0.55 0-1-0.45-1-1v-2c0-0.466 0.324-0.86 0.758-0.969l0.742-14.031h1l0.742 14.031z"></path>
</symbol>
<symbol id="icon-calendar" viewBox="0 0 32 32">
<path d="M10 12h4v4h-4zM16 12h4v4h-4zM22 12h4v4h-4zM4 24h4v4h-4zM10 24h4v4h-4zM16 24h4v4h-4zM10 18h4v4h-4zM16 18h4v4h-4zM22 18h4v4h-4zM4 18h4v4h-4zM26 0v2h-4v-2h-14v2h-4v-2h-4v32h30v-32h-4zM28 30h-26v-22h26v22z"></path>
</symbol>
</defs>
</svg>
